# xmcd CD database file
#
# Track frame offsets:
#	150
#	24347
#	46637
#	58605
#	78111
#	98935
#	112076
#	128055
#	139091
#	151121
#	171116
#	193106
#	208841
#	220801
#	234243
#	253061
#	263225
#	277746
#	291480
#	304815
#	321985
#
# Disc length: 4618 seconds
#
# Revision: 3
# Processed by: cddbd v1.5.2PL0 Copyright (c) Steve Scherf et al.
# Submitted via: CDex 1.80
#
DISCID=2b120815
DTITLE=Various Artist - All Blues
DYEAR=2002
DGENRE=Blues
TTITLE0=Muddy Waters - Mannish Boy (Album Version)
TTITLE1=Willie Dixon - Spoonful (Album Version)
TTITLE2=Robert Johnson - Hell Hound On My Trail (Album Version)
TTITLE3=Son House - Death Letter (Album Version)
TTITLE4=Stevie Ray Vaughan - The Sky Is Crying (Album Version)
TTITLE5=Jonny Winter - Messin' With The Kid (Album Version)
TTITLE6=The Rising Sons (with Ry Cooder and Taj Mahal ) - Bye and Bye (Album Version)
TTITLE7=Screamin' Jay Hawkins - I Put A Spell On You (Album Version)
TTITLE8=Brownie McGhee - Key To The Highway 70 No. 1 (Album Version)
TTITLE9=Jimmie Vaughan - Two Wings (Album Version)
TTITLE10=Keb'Mo' - Slow Down (Album Version)
TTITLE11=Taj Mahal - She Caught The Katy And Left Me A Mule To Ride (Album Version)
TTITLE12=Big Joe Williams - Don't You Leave Me Here (Album Version)
TTITLE13=Blind Willie Johnson - God Don't Never Change
TTITLE14=Janis Joplin - One Good Man (Album Version)
TTITLE15=Fleetwood Mac - Long Grey Mare (Album Version)
TTITLE16=Chicken Shack - I'd Rather Go Blind
TTITLE17=Otis Spann - Someday Baby
TTITLE18=Tampa Red - You Can't Get That Stuff No More (Album Version)
TTITLE19=Spirit - Turn To The Right (Album Version)
TTITLE20=The Fabulous Thunderbirds - Feelin' Good
EXTD=YEAR: 2002
EXTT0=
EXTT1=
EXTT2=
EXTT3=
EXTT4=
EXTT5=
EXTT6=
EXTT7=
EXTT8=
EXTT9=
EXTT10=
EXTT11=
EXTT12=
EXTT13=
EXTT14=
EXTT15=
EXTT16=
EXTT17=
EXTT18=
EXTT19=
EXTT20=
PLAYORDER=
